<?xml version="1.0" encoding="utf-8"?>
<!-- Generator: Adobe Illustrator 26.0.3, SVG Export Plug-In . SVG Version: 6.00 Build 0)  -->
<svg version="1.0" id="Layer_1" xmlns="http://www.w3.org/2000/svg" xmlns:xlink="http://www.w3.org/1999/xlink" x="0px" y="0px"
	 viewBox="0 0 1252.2 1017.5" style="enable-background:new 0 0 1252.2 1017.5;" xml:space="preserve">
<style type="text/css">
	.st0{fill:#095CA2;}
	.st1{fill:url(#SVGID_1_);}
	.st2{fill:#FFFFFF;}
	.st3{fill:#EAEAEA;}
	.st4{fill:#76CAE7;}
	.st5{fill:#1C8BB4;}
</style>
<path class="st0" d="M805.8,571.3V406c0.1-3.3-2.5-6-5.8-6c-1.6,0-3.2,0.6-4.3,1.8L626.5,570.9L450.6,746.8v121.4h510.8
	c13.1,0.2,23.9-10.2,24.1-23.2V406c0.1-3.3-2.5-6-5.8-6c-1.6,0-3.2,0.6-4.3,1.8L805.8,571.3z"/>
<linearGradient id="SVGID_1_" gradientUnits="userSpaceOnUse" x1="282.2428" y1="254.0433" x2="641.6667" y2="254.0433" gradientTransform="matrix(1 0 0 1 -15.58 286.42)">
	<stop  offset="0" style="stop-color:#095CA2"/>
	<stop  offset="7.000000e-02" style="stop-color:#0B61AA"/>
	<stop  offset="0.36" style="stop-color:#2170B7"/>
	<stop  offset="0.52" style="stop-color:#2974BA"/>
	<stop  offset="0.64" style="stop-color:#2471B8"/>
	<stop  offset="0.81" style="stop-color:#176AB3"/>
	<stop  offset="0.99" style="stop-color:#095CA2"/>
</linearGradient>
<path class="st1" d="M446.4,279.6c-99.4,0-179.7-29.2-179.7-66.8v239.8l0,0v391.6c-0.2,13.1,10.2,23.9,23.2,24.1h336.2V212.8
	C626.1,250.4,545.7,279.6,446.4,279.6z"/>
<path class="st2" d="M803.3,676.6h72.3c6.5,0,11.8,5.3,11.8,11.8v72.3c0,6.5-5.3,11.8-11.8,11.8h-72.3c-6.5,0-11.8-5.3-11.8-11.8
	v-72.3C791.4,681.9,796.7,676.6,803.3,676.6z"/>
<path class="st2" d="M636.7,676.6H709c6.5,0,11.8,5.3,11.8,11.8v72.3c0,6.5-5.3,11.8-11.8,11.8h-72.3c-6.5,0-11.8-5.3-11.8-11.8
	v-72.3C624.8,681.9,630.1,676.6,636.7,676.6z"/>
<path class="st2" d="M470.1,676.6h72.3c6.5,0,11.8,5.3,11.8,11.8v72.3c0,6.5-5.3,11.8-11.8,11.8h-72.3c-6.5,0-11.8-5.3-11.8-11.8
	v-72.3C458.2,681.9,463.5,676.6,470.1,676.6z"/>
<path class="st3" d="M626.1,212.8c0,35.9-80.3,65.1-179.7,65.1s-179.7-27.5-179.7-65.1s80.3-63.4,179.7-63.4
	S626.1,178.5,626.1,212.8"/>
<path class="st4" d="M583.8,209c0,23.3-61.7,42.3-137.8,42.3S308.1,233.1,308.1,209s64.3-41,138.3-41S583.8,186.1,583.8,209"/>
<path class="st5" d="M446.4,218.7c-37-0.7-73.8,4.6-109.1,15.6c35.2,11.6,72.1,17,109.1,16.1c37,0.9,73.9-4.5,109.1-16.1
	C520.2,223.2,483.3,218,446.4,218.7z"/>
</svg>
