<svg width="255" height="75" viewBox="0 0 255 75" fill="none" xmlns="http://www.w3.org/2000/svg">
<path d="M31.6587 36.7297L23.668 32.1206L23.668 41.4993L31.6587 46.3833L31.6587 36.7297Z" fill="#71EEFF"/>
<path d="M7.51855 22.9296L0.000322342 18.3437L0.000318401 55.0309L7.51855 59.3389L7.51855 22.9296Z" fill="#71EEFF"/>
<path d="M31.6743 63.8555L7.03122 50.2368L0.209117 55.1006L31.6743 74.0001L31.6743 63.8555Z" fill="#71EEFF"/>
<path d="M62.2353 54.8225L62.3745 45.7202L31.6055 63.8554L31.6055 73.9999L62.2353 54.8225Z" fill="#5F29D2"/>
<path d="M62.9307 27.7933L62.9307 18.4131L31.4655 36.6872L31.4655 46.4149L62.9307 27.7933Z" fill="#5F29D2"/>
<path d="M31.4652 -3.3752e-06L63 18.3436L31.4652 36.6872L23.6685 32.1708L47.4066 18.3436L31.4652 9.17179L7.44862 22.86L1.84402e-06 18.3436L31.4652 -3.3752e-06Z" fill="#00A3FF"/>
<path d="M86.632 57.104V53.464H91.7V52.582H86.632V49.096H92.316V48.2H85.596V58H92.526V57.104H86.632ZM102.787 58L100.393 54.64C101.821 54.178 102.633 53.1 102.633 51.56C102.633 49.46 101.121 48.2 98.6292 48.2H94.9612V58H95.9972V54.892H98.6292C98.9092 54.892 99.1612 54.878 99.4132 54.85L101.653 58H102.787ZM98.6012 54.01H95.9972V49.096H98.6012C100.561 49.096 101.597 49.992 101.597 51.56C101.597 53.1 100.561 54.01 98.6012 54.01ZM108.746 48.2H105.078V58H106.114V54.906H108.746C111.238 54.906 112.75 53.646 112.75 51.56C112.75 49.46 111.238 48.2 108.746 48.2ZM108.718 53.996H106.114V49.096H108.718C110.678 49.096 111.714 49.992 111.714 51.56C111.714 53.1 110.678 53.996 108.718 53.996ZM126.379 57.496L124.979 56.054C125.371 55.438 125.665 54.682 125.847 53.8L125.035 53.548C124.895 54.29 124.671 54.92 124.377 55.438L121.689 52.666C123.285 51.742 123.873 51.056 123.873 50.076C123.873 48.858 122.977 48.13 121.591 48.13C120.079 48.13 119.113 48.97 119.113 50.216C119.113 50.972 119.393 51.56 120.345 52.54C118.553 53.576 117.881 54.43 117.881 55.592C117.881 57.076 119.253 58.084 121.171 58.084C122.501 58.084 123.621 57.636 124.447 56.754L125.805 58.154L126.379 57.496ZM121.591 48.872C122.501 48.872 123.019 49.362 123.019 50.09C123.019 50.79 122.557 51.28 121.143 52.092C120.247 51.182 120.037 50.776 120.037 50.202C120.037 49.418 120.611 48.872 121.591 48.872ZM121.227 57.258C119.813 57.258 118.861 56.558 118.861 55.494C118.861 54.626 119.337 54.01 120.905 53.114L123.859 56.152C123.187 56.894 122.291 57.258 121.227 57.258ZM134.523 58.084C137.029 58.084 138.177 56.852 138.177 55.41C138.177 51.84 132.143 53.464 132.143 50.776C132.143 49.796 132.941 48.998 134.733 48.998C135.601 48.998 136.581 49.264 137.421 49.81L137.771 48.984C136.987 48.438 135.839 48.116 134.733 48.116C132.241 48.116 131.121 49.362 131.121 50.804C131.121 54.43 137.155 52.778 137.155 55.466C137.155 56.432 136.357 57.202 134.523 57.202C133.235 57.202 131.989 56.698 131.289 56.012L130.883 56.81C131.611 57.566 133.053 58.084 134.523 58.084ZM143.234 58.07C145.39 58.07 146.972 56.502 146.972 54.318C146.972 52.134 145.39 50.58 143.234 50.58C141.078 50.58 139.482 52.134 139.482 54.318C139.482 56.502 141.078 58.07 143.234 58.07ZM143.234 57.188C141.666 57.188 140.49 56.04 140.49 54.318C140.49 52.596 141.666 51.448 143.234 51.448C144.802 51.448 145.964 52.596 145.964 54.318C145.964 56.04 144.802 57.188 143.234 57.188ZM151.437 48.382C151.857 48.382 152.249 48.508 152.529 48.746L152.865 48.004C152.501 47.696 151.941 47.542 151.395 47.542C149.953 47.542 149.169 48.41 149.169 49.726V50.636H147.853V51.476H149.169V58H150.163V51.476H152.403V50.636H150.135V49.768C150.135 48.858 150.583 48.382 151.437 48.382ZM157.273 56.838C156.993 57.09 156.587 57.216 156.181 57.216C155.355 57.216 154.907 56.74 154.907 55.872V51.476H157.147V50.636H154.907V49.026H153.913V50.636H152.597V51.476H153.913V55.928C153.913 57.286 154.683 58.07 156.069 58.07C156.643 58.07 157.231 57.902 157.623 57.552L157.273 56.838ZM169.194 50.636L166.856 56.894L164.504 50.636H163.65L161.284 56.894L158.974 50.636H158.022L160.794 58H161.732L164.056 51.966L166.38 58H167.318L170.104 50.636H169.194ZM173.958 50.58C172.796 50.58 171.704 50.944 170.962 51.574L171.41 52.316C172.012 51.784 172.908 51.448 173.86 51.448C175.232 51.448 175.946 52.134 175.946 53.394V53.842H173.608C171.494 53.842 170.766 54.794 170.766 55.928C170.766 57.202 171.788 58.07 173.454 58.07C174.672 58.07 175.54 57.608 175.988 56.852V58H176.94V53.436C176.94 51.532 175.862 50.58 173.958 50.58ZM173.608 57.286C172.432 57.286 171.746 56.754 171.746 55.9C171.746 55.144 172.208 54.584 173.636 54.584H175.946V55.788C175.554 56.754 174.728 57.286 173.608 57.286ZM180.592 52.078V50.636H179.64V58H180.634V54.248C180.634 52.512 181.572 51.532 183.112 51.532C183.182 51.532 183.266 51.546 183.35 51.546V50.58C181.992 50.58 181.054 51.098 180.592 52.078ZM191.507 54.318C191.507 52.106 190.009 50.58 187.937 50.58C185.865 50.58 184.339 52.134 184.339 54.318C184.339 56.502 185.907 58.07 188.203 58.07C189.365 58.07 190.387 57.65 191.045 56.866L190.485 56.222C189.925 56.866 189.127 57.188 188.231 57.188C186.621 57.188 185.445 56.166 185.333 54.626H191.493C191.493 54.514 191.507 54.402 191.507 54.318ZM187.937 51.434C189.379 51.434 190.429 52.442 190.555 53.884H185.333C185.459 52.442 186.509 51.434 187.937 51.434ZM200.107 58.084C202.613 58.084 203.761 56.852 203.761 55.41C203.761 51.84 197.727 53.464 197.727 50.776C197.727 49.796 198.525 48.998 200.317 48.998C201.185 48.998 202.165 49.264 203.005 49.81L203.355 48.984C202.571 48.438 201.423 48.116 200.317 48.116C197.825 48.116 196.705 49.362 196.705 50.804C196.705 54.43 202.739 52.778 202.739 55.466C202.739 56.432 201.941 57.202 200.107 57.202C198.819 57.202 197.573 56.698 196.873 56.012L196.467 56.81C197.195 57.566 198.637 58.084 200.107 58.084ZM208.818 58.07C210.974 58.07 212.556 56.502 212.556 54.318C212.556 52.134 210.974 50.58 208.818 50.58C206.662 50.58 205.066 52.134 205.066 54.318C205.066 56.502 206.662 58.07 208.818 58.07ZM208.818 57.188C207.25 57.188 206.074 56.04 206.074 54.318C206.074 52.596 207.25 51.448 208.818 51.448C210.386 51.448 211.548 52.596 211.548 54.318C211.548 56.04 210.386 57.188 208.818 57.188ZM214.585 58H215.579V47.612H214.585V58ZM223.987 50.636V54.5C223.987 56.18 223.021 57.174 221.481 57.174C220.081 57.174 219.269 56.376 219.269 54.808V50.636H218.275V54.906C218.275 57.02 219.507 58.07 221.383 58.07C222.559 58.07 223.511 57.552 224.029 56.656V58H224.981V50.636H223.987ZM231.293 56.838C231.013 57.09 230.607 57.216 230.201 57.216C229.375 57.216 228.927 56.74 228.927 55.872V51.476H231.167V50.636H228.927V49.026H227.933V50.636H226.617V51.476H227.933V55.928C227.933 57.286 228.703 58.07 230.089 58.07C230.663 58.07 231.251 57.902 231.643 57.552L231.293 56.838ZM233.956 49.026C234.376 49.026 234.684 48.704 234.684 48.298C234.684 47.92 234.362 47.612 233.956 47.612C233.55 47.612 233.228 47.934 233.228 48.312C233.228 48.704 233.55 49.026 233.956 49.026ZM233.452 58H234.446V50.636H233.452V58ZM240.222 58.07C242.378 58.07 243.96 56.502 243.96 54.318C243.96 52.134 242.378 50.58 240.222 50.58C238.066 50.58 236.47 52.134 236.47 54.318C236.47 56.502 238.066 58.07 240.222 58.07ZM240.222 57.188C238.654 57.188 237.478 56.04 237.478 54.318C237.478 52.596 238.654 51.448 240.222 51.448C241.79 51.448 242.952 52.596 242.952 54.318C242.952 56.04 241.79 57.188 240.222 57.188ZM249.742 50.58C248.468 50.58 247.474 51.098 246.942 51.994V50.636H245.99V58H246.984V54.136C246.984 52.456 247.978 51.476 249.56 51.476C250.96 51.476 251.772 52.274 251.772 53.828V58H252.766V53.73C252.766 51.616 251.534 50.58 249.742 50.58Z" fill="#5041BC"/>
<path d="M102.578 39.8303V36.9138H88.0866C86.6594 36.9138 86.4032 36.4149 86.4032 35.0717V27.55H102.065V24.6335H86.4032V17.6874C86.4032 16.3442 86.6594 15.8837 88.0866 15.8837H102.431V12.9672H86.5862C84.354 12.9672 83 13.8882 83 16.7664V36.0311C83 38.7174 84.354 39.8303 86.5862 39.8303H102.578ZM119.622 37.2208C114.499 37.2208 112.559 35.4171 112.559 30.4282V12.9672H109.156V30.7736C109.156 37.8732 113.218 40.1374 119.622 40.1374C126.026 40.1374 130.088 37.8732 130.088 30.7736V12.9672H126.685V30.4282C126.685 35.4171 124.745 37.2208 119.622 37.2208ZM160.759 39.8303L147.622 28.4327C146.817 27.7419 145.902 26.9744 145.902 26.015C145.902 25.1707 146.67 24.6718 147.329 24.0578L159.405 12.9672H154.977L144.145 23.06C143.048 24.0578 142.572 25.1707 142.572 26.015C142.572 27.0895 142.865 28.2408 144.328 29.5072L156.148 39.8303H160.759ZM137.778 39.8303H141.181V12.9672H137.778V39.8303ZM184.718 39.8303V36.9138H170.52C169.276 36.9138 168.91 36.4916 168.91 35.302V12.9672H165.507V36.6068C165.507 39.0628 166.897 39.8303 168.763 39.8303H184.718ZM209.597 39.8303V36.9138H195.105C193.678 36.9138 193.422 36.4149 193.422 35.0717V27.55H209.084V24.6335H193.422V17.6874C193.422 16.3442 193.678 15.8837 195.105 15.8837H209.45V12.9672H193.605C191.373 12.9672 190.019 13.8882 190.019 16.7664V36.0311C190.019 38.7174 191.373 39.8303 193.605 39.8303H209.597ZM219.578 39.8303V12.9672H216.175V39.8303H219.578ZM224.506 39.8303H228.092L230.946 32.5389H244.523L247.414 39.8303H251L241.303 15.6151C240.571 13.7731 239.619 12.6602 237.753 12.6602C235.813 12.6602 235.008 13.7347 234.24 15.6151L224.506 39.8303ZM236.875 17.3036C237.094 16.7664 237.314 15.9989 237.753 15.9989C238.192 15.9989 238.448 16.7664 238.668 17.3036L243.498 29.6223H231.971L236.875 17.3036Z" fill="black"/>
</svg>
